<svg width="268" height="263" viewBox="0 0 268 263" fill="none" xmlns="http://www.w3.org/2000/svg">
<line x1="16.2554" y1="130.259" x2="131.26" y2="15.255" stroke="black" stroke-width="12"/>
<line x1="254.32" y1="133.815" x2="138.344" y2="21.8172" stroke="black" stroke-width="12"/>
<line x1="251" y1="131" x2="251" y2="251" stroke="black" stroke-width="12"/>
<line x1="136" y1="248" x2="245" y2="248" stroke="black" stroke-width="12"/>
<line x1="16.9873" y1="142" x2="16.9873" y2="257.001" stroke="black" stroke-width="12"/>
<line x1="134" y1="130" x2="134" y2="250" stroke="black" stroke-width="12"/>
<circle cx="133.5" cy="130.5" r="17" fill="black" stroke="black"/>
<circle cx="133.5" cy="245.5" r="17" fill="black" stroke="black"/>
<circle cx="17.5" cy="245.5" r="17" fill="black" stroke="black"/>
<circle cx="250.5" cy="245.5" r="17" fill="black" stroke="black"/>
<circle cx="17.5" cy="131.5" r="17" fill="black" stroke="black"/>
<circle cx="250.5" cy="130.5" r="17" fill="black" stroke="black"/>
<line x1="16.2554" y1="130.259" x2="131.26" y2="15.255" stroke="black" stroke-width="12"/>
<line x1="249.856" y1="128.339" x2="138.367" y2="21.8398" stroke="black" stroke-width="12"/>
<line x1="251" y1="131" x2="251" y2="251" stroke="black" stroke-width="12"/>
<line x1="136" y1="248" x2="245" y2="248" stroke="black" stroke-width="12"/>
<line x1="16.9873" y1="142" x2="16.9873" y2="257.001" stroke="black" stroke-width="12"/>
<line x1="134" y1="130" x2="134" y2="250" stroke="black" stroke-width="12"/>
<circle cx="133.5" cy="130.5" r="17" fill="black" stroke="black"/>
<circle cx="133.5" cy="245.5" r="17" fill="black" stroke="black"/>
<circle cx="17.5" cy="245.5" r="17" fill="black" stroke="black"/>
<circle cx="250.5" cy="245.5" r="17" fill="black" stroke="black"/>
<circle cx="17.5" cy="131.5" r="17" fill="black" stroke="black"/>
<circle cx="250.5" cy="130.5" r="17" fill="black" stroke="black"/>
<circle cx="133.5" cy="17.5" r="17" fill="black" stroke="black"/>
</svg>
